<svg xmlns="http://www.w3.org/2000/svg" version="1.1" viewBox="-5.0 -10.0 110.0 135.0">
    <path
        d="m41.023 93.02v-3.0586h-6.1172v-6.1172h-12.227v-6.1172h-6.1172v-12.227h-6.1172l0.011719-9.1641v-9.168h-6.1172v-30.57h6.1172v-6.1133h6.1172l-0.003907-3.0586v-3.0586h18.344v6.1172h30.57l-0.003906-3.0586v-3.0586h18.344v6.1172h6.1172v6.1172h6.1172v30.57h-6.1172v18.344h-6.1172v12.227h-6.1172v6.1172h-12.227v6.1172h-6.1172v6.1172h-18.344zm18.344-12.227v-9.1719h-6.1172v12.227h-6.1172v-12.227h-6.1172v18.344h18.344zm-24.457-6.1133v-3.0586h-6.1172v-6.1172h18.344v-6.1172h-6.1172v-6.1172h18.344v6.1172h-6.1172v6.1172h18.344v6.1172h-6.1172v6.1172h12.227v-18.344h6.1172l0.007813-6.1133v-6.1133h-6.1172v-6.1172h-6.1172v-12.227h-6.1172l0.007813-6.1133v-6.1133h-30.57v12.227h-6.1172v12.227h-6.1172v6.1172h-6.1172v12.227h6.1172v18.344h12.227zm-12.227-18.34v-3.0586h12.227v6.1172h-12.227zm42.797 0v-3.0586h12.227v6.1172h-12.227zm-30.57-15.285v-6.1133h6.1172v12.227h-6.1172zm24.457 0v-6.1133h6.1172v12.227h-6.1172z" fill="#ee8c2b" />
    <text x="0.0" y="117.5" font-size="5.0" font-weight="bold"
        font-family="Arbeit Regular, Helvetica, Arial-Unicode, Arial, Sans-serif" fill="#ffffff00">Created
        by Donchu</text>
    <text x="0.0" y="122.5" font-size="5.0" font-weight="bold"
        font-family="Arbeit Regular, Helvetica, Arial-Unicode, Arial, Sans-serif" fill="#ffffff00">from
        Noun Project</text>
</svg>